<svg width="247" height="56" viewBox="0 0 247 56" fill="none" xmlns="http://www.w3.org/2000/svg">
<path d="M80.125 28.0391H71.4766L71.4297 24.4062H79.2812C80.5781 24.4062 81.7109 24.1875 82.6797 23.75C83.6484 23.3125 84.3984 22.6875 84.9297 21.875C85.4766 21.0469 85.75 20.0625 85.75 18.9219C85.75 17.6719 85.5078 16.6562 85.0234 15.875C84.5547 15.0781 83.8281 14.5 82.8438 14.1406C81.875 13.7656 80.6406 13.5781 79.1406 13.5781H72.4844V44H67.9609V9.875H79.1406C80.8906 9.875 82.4531 10.0547 83.8281 10.4141C85.2031 10.7578 86.3672 11.3047 87.3203 12.0547C88.2891 12.7891 89.0234 13.7266 89.5234 14.8672C90.0234 16.0078 90.2734 17.375 90.2734 18.9688C90.2734 20.375 89.9141 21.6484 89.1953 22.7891C88.4766 23.9141 87.4766 24.8359 86.1953 25.5547C84.9297 26.2734 83.4453 26.7344 81.7422 26.9375L80.125 28.0391ZM79.9141 44H69.6953L72.25 40.3203H79.9141C81.3516 40.3203 82.5703 40.0703 83.5703 39.5703C84.5859 39.0703 85.3594 38.3672 85.8906 37.4609C86.4219 36.5391 86.6875 35.4531 86.6875 34.2031C86.6875 32.9375 86.4609 31.8438 86.0078 30.9219C85.5547 30 84.8438 29.2891 83.875 28.7891C82.9062 28.2891 81.6562 28.0391 80.125 28.0391H73.6797L73.7266 24.4062H82.5391L83.5 25.7188C85.1406 25.8594 86.5312 26.3281 87.6719 27.125C88.8125 27.9062 89.6797 28.9062 90.2734 30.125C90.8828 31.3438 91.1875 32.6875 91.1875 34.1562C91.1875 36.2812 90.7188 38.0781 89.7812 39.5469C88.8594 41 87.5547 42.1094 85.8672 42.875C84.1797 43.625 82.1953 44 79.9141 44ZM117.015 35.375C117.015 34.5781 116.89 33.875 116.64 33.2656C116.405 32.6406 115.983 32.0781 115.374 31.5781C114.78 31.0781 113.952 30.6016 112.89 30.1484C111.843 29.6953 110.515 29.2344 108.905 28.7656C107.218 28.2656 105.694 27.7109 104.335 27.1016C102.976 26.4766 101.812 25.7656 100.843 24.9688C99.8741 24.1719 99.1319 23.2578 98.6162 22.2266C98.1006 21.1953 97.8428 20.0156 97.8428 18.6875C97.8428 17.3594 98.1162 16.1328 98.6631 15.0078C99.21 13.8828 99.9912 12.9062 101.007 12.0781C102.038 11.2344 103.265 10.5781 104.687 10.1094C106.108 9.64062 107.694 9.40625 109.444 9.40625C112.007 9.40625 114.179 9.89844 115.96 10.8828C117.757 11.8516 119.124 13.125 120.062 14.7031C120.999 16.2656 121.468 17.9375 121.468 19.7188H116.968C116.968 18.4375 116.694 17.3047 116.147 16.3203C115.601 15.3203 114.772 14.5391 113.663 13.9766C112.554 13.3984 111.147 13.1094 109.444 13.1094C107.835 13.1094 106.507 13.3516 105.46 13.8359C104.413 14.3203 103.632 14.9766 103.116 15.8047C102.616 16.6328 102.366 17.5781 102.366 18.6406C102.366 19.3594 102.515 20.0156 102.812 20.6094C103.124 21.1875 103.601 21.7266 104.241 22.2266C104.897 22.7266 105.726 23.1875 106.726 23.6094C107.741 24.0312 108.952 24.4375 110.358 24.8281C112.296 25.375 113.968 25.9844 115.374 26.6562C116.78 27.3281 117.937 28.0859 118.843 28.9297C119.765 29.7578 120.444 30.7031 120.882 31.7656C121.335 32.8125 121.562 34 121.562 35.3281C121.562 36.7188 121.28 37.9766 120.718 39.1016C120.155 40.2266 119.351 41.1875 118.304 41.9844C117.257 42.7812 115.999 43.3984 114.53 43.8359C113.077 44.2578 111.452 44.4688 109.655 44.4688C108.077 44.4688 106.522 44.25 104.991 43.8125C103.476 43.375 102.093 42.7188 100.843 41.8438C99.6084 40.9688 98.6162 39.8906 97.8662 38.6094C97.1319 37.3125 96.7647 35.8125 96.7647 34.1094H101.265C101.265 35.2812 101.491 36.2891 101.944 37.1328C102.397 37.9609 103.015 38.6484 103.796 39.1953C104.593 39.7422 105.491 40.1484 106.491 40.4141C107.507 40.6641 108.562 40.7891 109.655 40.7891C111.233 40.7891 112.569 40.5703 113.663 40.1328C114.757 39.6953 115.585 39.0703 116.147 38.2578C116.726 37.4453 117.015 36.4844 117.015 35.375ZM148.889 33.1484H153.389C153.154 35.3047 152.537 37.2344 151.537 38.9375C150.537 40.6406 149.123 41.9922 147.295 42.9922C145.467 43.9766 143.186 44.4688 140.451 44.4688C138.451 44.4688 136.631 44.0938 134.99 43.3438C133.365 42.5938 131.967 41.5312 130.795 40.1562C129.623 38.7656 128.717 37.1016 128.076 35.1641C127.451 33.2109 127.139 31.0391 127.139 28.6484V25.25C127.139 22.8594 127.451 20.6953 128.076 18.7578C128.717 16.8047 129.631 15.1328 130.818 13.7422C132.022 12.3516 133.467 11.2812 135.154 10.5312C136.842 9.78125 138.74 9.40625 140.85 9.40625C143.428 9.40625 145.607 9.89063 147.389 10.8594C149.17 11.8281 150.553 13.1719 151.537 14.8906C152.537 16.5938 153.154 18.5703 153.389 20.8203H148.889C148.67 19.2266 148.264 17.8594 147.67 16.7188C147.076 15.5625 146.232 14.6719 145.139 14.0469C144.045 13.4219 142.615 13.1094 140.85 13.1094C139.334 13.1094 137.998 13.3984 136.842 13.9766C135.701 14.5547 134.74 15.375 133.959 16.4375C133.193 17.5 132.615 18.7734 132.225 20.2578C131.834 21.7422 131.639 23.3906 131.639 25.2031V28.6484C131.639 30.3203 131.811 31.8906 132.154 33.3594C132.514 34.8281 133.053 36.1172 133.772 37.2266C134.49 38.3359 135.404 39.2109 136.514 39.8516C137.623 40.4766 138.936 40.7891 140.451 40.7891C142.373 40.7891 143.904 40.4844 145.045 39.875C146.186 39.2656 147.045 38.3906 147.623 37.25C148.217 36.1094 148.639 34.7422 148.889 33.1484Z" fill="#FCD535"/>
<path d="M167.656 44H165.797V25C165.797 23.8438 165.995 22.8698 166.391 22.0781C166.797 21.2865 167.37 20.6875 168.109 20.2812C168.859 19.875 169.75 19.6719 170.781 19.6719C171.104 19.6719 171.438 19.6927 171.781 19.7344C172.125 19.7656 172.458 19.8333 172.781 19.9375L172.641 21.5156C172.38 21.4427 172.115 21.3958 171.844 21.375C171.583 21.3438 171.276 21.3281 170.922 21.3281C170.245 21.3281 169.661 21.474 169.172 21.7656C168.682 22.0469 168.307 22.4583 168.047 23C167.786 23.5417 167.656 24.2083 167.656 25V44ZM171.688 27.0938V28.625H163V27.0938H171.688ZM177.376 35.8125V35.2969C177.376 34.0677 177.553 32.9323 177.907 31.8906C178.261 30.849 178.766 29.9479 179.422 29.1875C180.089 28.4271 180.886 27.8385 181.813 27.4219C182.74 26.9948 183.771 26.7812 184.907 26.7812C186.053 26.7812 187.089 26.9948 188.016 27.4219C188.943 27.8385 189.74 28.4271 190.407 29.1875C191.074 29.9479 191.584 30.849 191.938 31.8906C192.292 32.9323 192.469 34.0677 192.469 35.2969V35.8125C192.469 37.0417 192.292 38.1771 191.938 39.2188C191.584 40.25 191.074 41.1458 190.407 41.9062C189.751 42.6667 188.959 43.2604 188.032 43.6875C187.105 44.1042 186.074 44.3125 184.938 44.3125C183.792 44.3125 182.756 44.1042 181.829 43.6875C180.902 43.2604 180.105 42.6667 179.438 41.9062C178.771 41.1458 178.261 40.25 177.907 39.2188C177.553 38.1771 177.376 37.0417 177.376 35.8125ZM179.235 35.2969V35.8125C179.235 36.7396 179.36 37.6198 179.61 38.4531C179.86 39.276 180.225 40.0104 180.704 40.6562C181.183 41.2917 181.777 41.7917 182.485 42.1562C183.193 42.5208 184.011 42.7031 184.938 42.7031C185.855 42.7031 186.662 42.5208 187.36 42.1562C188.068 41.7917 188.662 41.2917 189.141 40.6562C189.62 40.0104 189.98 39.276 190.219 38.4531C190.469 37.6198 190.594 36.7396 190.594 35.8125V35.2969C190.594 34.3802 190.469 33.5104 190.219 32.6875C189.98 31.8646 189.615 31.1302 189.126 30.4844C188.646 29.8385 188.053 29.3281 187.344 28.9531C186.636 28.5781 185.824 28.3906 184.907 28.3906C183.99 28.3906 183.178 28.5781 182.469 28.9531C181.771 29.3281 181.178 29.8385 180.688 30.4844C180.209 31.1302 179.844 31.8646 179.594 32.6875C179.355 33.5104 179.235 34.3802 179.235 35.2969ZM201.47 30.5938V44H199.595V27.0938H201.392L201.47 30.5938ZM201.126 34.5L200.22 34.0312C200.283 33.0312 200.47 32.0938 200.783 31.2188C201.105 30.3438 201.553 29.5729 202.126 28.9062C202.699 28.2396 203.387 27.7188 204.189 27.3438C204.991 26.9688 205.902 26.7812 206.923 26.7812C207.746 26.7812 208.491 26.8958 209.158 27.125C209.835 27.3438 210.408 27.6927 210.876 28.1719C211.355 28.6406 211.725 29.2552 211.986 30.0156C212.246 30.776 212.376 31.6875 212.376 32.75V44H210.517V32.8125C210.517 31.6875 210.34 30.8073 209.986 30.1719C209.642 29.5365 209.158 29.0833 208.533 28.8125C207.918 28.5417 207.204 28.4062 206.392 28.4062C205.434 28.4062 204.621 28.6042 203.954 29C203.298 29.3854 202.762 29.8906 202.345 30.5156C201.939 31.1302 201.637 31.7917 201.439 32.5C201.241 33.1979 201.137 33.8646 201.126 34.5ZM212.361 33.0312L211.111 33.0625C211.163 32.2396 211.35 31.4531 211.673 30.7031C212.006 29.9531 212.46 29.2865 213.033 28.7031C213.605 28.1094 214.288 27.6406 215.079 27.2969C215.881 26.9531 216.783 26.7812 217.783 26.7812C218.658 26.7812 219.439 26.901 220.126 27.1406C220.814 27.3698 221.392 27.7396 221.861 28.25C222.34 28.75 222.704 29.3906 222.954 30.1719C223.204 30.9531 223.329 31.8906 223.329 32.9844V44H221.454V32.9688C221.454 31.7708 221.277 30.8438 220.923 30.1875C220.579 29.5208 220.1 29.0573 219.486 28.7969C218.871 28.5365 218.152 28.4062 217.329 28.4062C216.517 28.4167 215.803 28.5677 215.189 28.8594C214.574 29.1406 214.059 29.5156 213.642 29.9844C213.236 30.4427 212.923 30.9375 212.704 31.4688C212.496 32 212.381 32.5208 212.361 33.0312ZM230.408 35.8125V35.2969C230.408 34.0677 230.585 32.9323 230.939 31.8906C231.294 30.849 231.799 29.9479 232.455 29.1875C233.122 28.4271 233.919 27.8385 234.846 27.4219C235.773 26.9948 236.804 26.7812 237.939 26.7812C239.085 26.7812 240.122 26.9948 241.049 27.4219C241.976 27.8385 242.773 28.4271 243.439 29.1875C244.106 29.9479 244.616 30.849 244.971 31.8906C245.325 32.9323 245.502 34.0677 245.502 35.2969V35.8125C245.502 37.0417 245.325 38.1771 244.971 39.2188C244.616 40.25 244.106 41.1458 243.439 41.9062C242.783 42.6667 241.991 43.2604 241.064 43.6875C240.137 44.1042 239.106 44.3125 237.971 44.3125C236.825 44.3125 235.788 44.1042 234.861 43.6875C233.934 43.2604 233.137 42.6667 232.471 41.9062C231.804 41.1458 231.294 40.25 230.939 39.2188C230.585 38.1771 230.408 37.0417 230.408 35.8125ZM232.268 35.2969V35.8125C232.268 36.7396 232.393 37.6198 232.643 38.4531C232.893 39.276 233.257 40.0104 233.736 40.6562C234.215 41.2917 234.809 41.7917 235.518 42.1562C236.226 42.5208 237.044 42.7031 237.971 42.7031C238.887 42.7031 239.695 42.5208 240.393 42.1562C241.101 41.7917 241.695 41.2917 242.174 40.6562C242.653 40.0104 243.012 39.276 243.252 38.4531C243.502 37.6198 243.627 36.7396 243.627 35.8125V35.2969C243.627 34.3802 243.502 33.5104 243.252 32.6875C243.012 31.8646 242.648 31.1302 242.158 30.4844C241.679 29.8385 241.085 29.3281 240.377 28.9531C239.669 28.5781 238.856 28.3906 237.939 28.3906C237.023 28.3906 236.21 28.5781 235.502 28.9531C234.804 29.3281 234.21 29.8385 233.721 30.4844C233.241 31.1302 232.877 31.8646 232.627 32.6875C232.387 33.5104 232.268 34.3802 232.268 35.2969Z" fill="white"/>
<rect width="22.7447" height="7.58156" transform="matrix(0.702672 -0.711514 0.702672 0.711514 16.0475 17.1831)" fill="#FCD535"/>
<rect width="22.7447" height="7.58156" transform="matrix(-0.702672 0.711514 -0.702672 -0.711514 47.9797 38.8169)" fill="#FCD535"/>
<rect width="22.7447" height="7.58156" transform="matrix(-0.702672 -0.711514 0.702672 -0.711514 42.5771 22.5776)" fill="#FCD535"/>
<rect width="22.7447" height="7.58156" transform="matrix(0.702672 0.711514 -0.702672 0.711514 21.3748 33.4225)" fill="#FCD535"/>
<path fill-rule="evenodd" clip-rule="evenodd" d="M25.3119 23.9975L21.3213 28.0383L25.2801 32.047L29.2708 28.0061L25.3119 23.9975ZM26.6683 22.624L30.6272 26.6326L30.6328 26.627L31.9892 28.0005L31.9836 28.0061L31.985 28.0075L30.6285 29.381L30.6272 29.3797L26.6366 33.4205L31.976 38.8271L37.3308 33.4049L33.3533 29.3774L33.3499 29.3809L31.9934 28.0074L37.2968 22.6373L31.976 17.2495L26.6683 22.624ZM38.6532 24.0108L34.7098 28.0039L38.6872 32.0314L42.6307 28.0383L38.6532 24.0108Z" fill="#FCD535"/>
<path fill-rule="evenodd" clip-rule="evenodd" d="M21.3575 27.9861L10.6787 17.173L0 27.9861L10.6787 38.7992L21.3575 27.9861ZM14.6189 27.9693L10.6621 23.9627L6.70535 27.9693L10.6621 31.9758L14.6189 27.9693Z" fill="#FCD535"/>
<path fill-rule="evenodd" clip-rule="evenodd" d="M64.0001 27.9861L53.3213 17.173L42.6426 27.9861L53.3213 38.7992L64.0001 27.9861ZM57.2614 27.9693L53.3046 23.9627L49.3478 27.9693L53.3046 31.9758L57.2614 27.9693Z" fill="#FCD535"/>
</svg>
