<svg width="60" height="59" viewBox="0 0 60 59" fill="none" xmlns="http://www.w3.org/2000/svg">
<path d="M57.6202 25.8617C57.5911 25.8617 57.5911 25.8617 57.6202 25.8617L52.3119 20.5697V12.8218C52.3119 9.78117 49.8327 7.296 46.7702 7.296H39.0702L33.7619 1.97482C31.7494 -0.0425508 28.2494 -0.0425508 26.2369 1.97482L20.9286 7.296H13.2286C10.1661 7.296 7.68695 9.78117 7.68695 12.8218V20.5697L2.37861 25.8617C0.307775 27.9667 0.307759 31.3583 2.40776 33.4341L7.68695 38.7261V46.4739C7.68695 49.5438 10.1661 52.029 13.2286 52.029H20.9286L26.2369 57.3209C27.2286 58.3443 28.5702 58.8998 29.9994 58.8998C31.4286 58.8998 32.7702 58.3443 33.7619 57.3209L39.0702 52.029H46.7702C49.8327 52.029 52.3119 49.5438 52.3119 46.4739V38.7261L57.6202 33.4341C59.6911 31.3583 59.6911 27.9667 57.6202 25.8617ZM39.0994 42.3222C37.0869 42.3222 35.4244 40.6557 35.4244 38.6091C35.4244 36.5917 37.0869 34.9252 39.0994 34.9252C41.1411 34.9252 42.8036 36.5917 42.8036 38.6091C42.8036 40.6557 41.1411 42.3222 39.0994 42.3222ZM21.1619 16.9151C23.1744 16.9151 24.8369 18.5816 24.8369 20.6282C24.8369 22.6456 23.1744 24.3121 21.1619 24.3121C19.1203 24.3121 17.4578 22.6456 17.4578 20.6282C17.4578 18.5816 19.1203 16.9151 21.1619 16.9151ZM21.3369 35.2176L35.5703 20.979C36.4161 20.1312 37.7869 20.1312 38.6619 20.979C39.5077 21.8269 39.5077 23.2303 38.6619 24.0782L24.4286 38.3167C24.0202 38.7553 23.4661 38.96 22.8827 38.96C22.3286 38.96 21.7744 38.7553 21.3369 38.3167C20.4911 37.4689 20.4911 36.0655 21.3369 35.2176Z" fill="white"/>
</svg>
