<svg width="60" height="48" viewBox="0 0 60 48" fill="none" xmlns="http://www.w3.org/2000/svg">
<path d="M20.7827 22.7505C26.8494 22.7505 31.7786 17.8094 31.7786 11.728C31.7786 5.64666 26.8494 0.705566 20.7827 0.705566C14.716 0.705566 9.78687 5.64666 9.78687 11.728C9.78687 17.8094 14.716 22.7505 20.7827 22.7505Z" fill="white"/>
<path d="M42.1331 39.9719V45.0007C42.1331 46.1994 41.1706 47.1935 39.9456 47.1935H3.02051C1.82468 47.1935 0.833008 46.1994 0.833008 45.0007V39.9719C0.833008 32.9257 6.54967 27.1952 13.5788 27.1952H29.3872C30.8163 27.1952 32.1872 27.4291 33.4705 27.8969C33.4705 27.8969 33.4705 27.8676 33.4997 27.8969C38.5164 29.5926 42.1331 34.3583 42.1331 39.9719Z" fill="white"/>
<path d="M42.1331 39.9719V45.0007C42.1331 46.1994 41.1706 47.1935 39.9456 47.1935H3.02051C1.82468 47.1935 0.833008 46.1994 0.833008 45.0007V39.9719C0.833008 32.9257 6.54967 27.1952 13.5788 27.1952H29.3872C30.8163 27.1952 32.1872 27.4291 33.4705 27.8969C33.4705 27.8969 33.4705 27.8676 33.4997 27.8969C38.5164 29.5926 42.1331 34.3583 42.1331 39.9719Z" fill="white"/>
<path d="M59.1661 37.4578V41.5803C59.1661 42.5451 58.3786 43.3345 57.4161 43.3345H46.5079V39.9722C46.5079 37.0193 45.7495 34.2125 44.437 31.7858C43.8829 30.7918 43.2704 29.8562 42.5704 29.0083C42.0746 28.4528 41.5787 27.8973 41.0537 27.4295H49.162C49.4829 27.4295 49.7745 27.4295 50.0662 27.488C50.4454 27.5172 50.8245 27.5757 51.2037 27.6634C53.4203 28.1312 55.3453 29.3592 56.7745 30.9964C57.0078 31.2596 57.2412 31.5519 57.4453 31.8735C57.4745 31.8735 57.4745 31.8735 57.4453 31.9028C57.9995 32.7214 58.437 33.5985 58.7287 34.5633C58.8162 34.885 58.9036 35.2066 58.962 35.5282C59.1078 36.1422 59.1661 36.7854 59.1661 37.4578Z" fill="white"/>
<path d="M42.7748 22.3415C47.5912 22.3415 51.4956 18.4276 51.4956 13.5996C51.4956 8.77155 47.5912 4.85767 42.7748 4.85767C37.9584 4.85767 34.054 8.77155 34.054 13.5996C34.054 18.4276 37.9584 22.3415 42.7748 22.3415Z" fill="white"/>
</svg>
